<svg width="24" height="50" fill="none" xmlns="http://www.w3.org/2000/svg"><path d="m12 22.033-1.45-1.313c-1.683-1.532-3.075-2.853-4.175-3.964-1.1-1.111-1.975-2.104-2.625-2.98-.65-.892-1.108-1.708-1.375-2.45A7.061 7.061 0 0 1 2 9.055c0-1.582.525-2.904 1.575-3.964C4.625 4.03 5.933 3.499 7.5 3.499c.867 0 1.692.185 2.475.556.783.37 1.458.892 2.025 1.565a5.937 5.937 0 0 1 2.025-1.565 5.72 5.72 0 0 1 2.475-.556c1.567 0 2.875.53 3.925 1.59C21.475 6.15 22 7.473 22 9.055a6.66 6.66 0 0 1-.4 2.273c-.25.74-.7 1.557-1.35 2.45-.65.875-1.525 1.868-2.625 2.979-1.1 1.11-2.492 2.432-4.175 3.964L12 22.033Zm0-2.727c1.6-1.448 2.917-2.685 3.95-3.712 1.033-1.043 1.85-1.944 2.45-2.702.6-.774 1.017-1.456 1.25-2.045.233-.606.35-1.204.35-1.793 0-1.01-.333-1.851-1-2.525-.667-.673-1.5-1.01-2.5-1.01-.783 0-1.508.227-2.175.682-.667.438-1.125 1.002-1.375 1.692h-1.9c-.25-.69-.708-1.254-1.375-1.692A3.783 3.783 0 0 0 7.5 5.519c-1 0-1.833.337-2.5 1.01-.667.674-1 1.515-1 2.525 0 .59.117 1.187.35 1.793.233.59.65 1.271 1.25 2.045.6.758 1.417 1.659 2.45 2.702A119.186 119.186 0 0 0 12 19.306ZM11 42.236h2v-4.04h4v-2.02h-4v-4.04h-2v4.04H7v2.02h4v4.04Zm1 5.05a9.79 9.79 0 0 1-3.9-.783 10.271 10.271 0 0 1-3.175-2.172c-.9-.909-1.617-1.978-2.15-3.206A10.06 10.06 0 0 1 2 37.185c0-1.397.258-2.71.775-3.939a10.384 10.384 0 0 1 2.15-3.207A9.922 9.922 0 0 1 8.1 27.893a9.525 9.525 0 0 1 3.9-.808c1.383 0 2.683.27 3.9.808a9.922 9.922 0 0 1 3.175 2.146c.9.91 1.608 1.978 2.125 3.207.533 1.23.8 2.542.8 3.94 0 1.397-.267 2.71-.8 3.939a10.035 10.035 0 0 1-2.125 3.206c-.9.91-1.958 1.633-3.175 2.172a9.79 9.79 0 0 1-3.9.783Zm0-2.02c2.233 0 4.125-.783 5.675-2.349C19.225 41.352 20 39.441 20 37.185c0-2.255-.775-4.166-2.325-5.732-1.55-1.565-3.442-2.348-5.675-2.348-2.233 0-4.125.783-5.675 2.348C4.775 33.02 4 34.93 4 37.185c0 2.256.775 4.167 2.325 5.732 1.55 1.566 3.442 2.349 5.675 2.349Z" fill="#1D1B20"/></svg>