<svg width="24" height="25" fill="none" xmlns="http://www.w3.org/2000/svg"><path d="m12 21.477-1.45-1.313c-1.683-1.532-3.075-2.854-4.175-3.965-1.1-1.11-1.975-2.104-2.625-2.98-.65-.892-1.108-1.708-1.375-2.449A7.06 7.06 0 0 1 2 8.498c0-1.583.525-2.904 1.575-3.965 1.05-1.06 2.358-1.59 3.925-1.59.867 0 1.692.185 2.475.555.783.37 1.458.892 2.025 1.565a5.937 5.937 0 0 1 2.025-1.565 5.72 5.72 0 0 1 2.475-.556c1.567 0 2.875.53 3.925 1.591C21.475 5.593 22 6.915 22 8.498a6.66 6.66 0 0 1-.4 2.272c-.25.74-.7 1.557-1.35 2.45-.65.875-1.525 1.868-2.625 2.98-1.1 1.11-2.492 2.432-4.175 3.964L12 21.477Zm0-2.727c1.6-1.448 2.917-2.685 3.95-3.712 1.033-1.044 1.85-1.945 2.45-2.702.6-.775 1.017-1.456 1.25-2.046.233-.606.35-1.203.35-1.792 0-1.01-.333-1.852-1-2.525-.667-.674-1.5-1.01-2.5-1.01-.783 0-1.508.227-2.175.681-.667.438-1.125 1.002-1.375 1.692h-1.9c-.25-.69-.708-1.254-1.375-1.692A3.783 3.783 0 0 0 7.5 4.962c-1 0-1.833.337-2.5 1.01-.667.674-1 1.516-1 2.526 0 .589.117 1.186.35 1.793.233.589.65 1.27 1.25 2.045.6.757 1.417 1.658 2.45 2.702A119.186 119.186 0 0 0 12 18.75Z" fill="#1D1B20"/></svg>