<svg width="30" height="29" fill="none" xmlns="http://www.w3.org/2000/svg"><path d="M13.792 20.542h2.417v-4.833h4.833v-2.417h-4.833V8.459h-2.417v4.833H8.959v2.417h4.833v4.833ZM15 26.584c-1.671 0-3.242-.313-4.712-.937A12.415 12.415 0 0 1 6.45 23.05a12.415 12.415 0 0 1-2.598-3.836c-.624-1.47-.936-3.041-.936-4.713 0-1.671.312-3.242.936-4.712A12.416 12.416 0 0 1 6.451 5.95a11.995 11.995 0 0 1 3.837-2.567A11.608 11.608 0 0 1 15 2.417c1.672 0 3.243.322 4.713.967 1.47.624 2.749 1.48 3.836 2.567a11.995 11.995 0 0 1 2.568 3.837c.644 1.47.967 3.04.967 4.712 0 1.672-.323 3.243-.967 4.713a11.994 11.994 0 0 1-2.568 3.836 12.414 12.414 0 0 1-3.836 2.598c-1.47.625-3.041.937-4.713.937Zm0-2.417c2.699 0 4.985-.937 6.858-2.81 1.872-1.872 2.809-4.158 2.809-6.857 0-2.698-.937-4.984-2.81-6.857C19.986 5.77 17.7 4.833 15 4.833c-2.698 0-4.984.937-6.857 2.81-1.873 1.873-2.81 4.159-2.81 6.857 0 2.699.937 4.985 2.81 6.858 1.873 1.872 4.159 2.809 6.857 2.809Z" fill="#1D1B20"/></svg>