<svg width="30" height="29" fill="none" xmlns="http://www.w3.org/2000/svg"><path d="m15 25.375-1.752-1.57c-2.034-1.833-3.715-3.414-5.045-4.744-1.329-1.329-2.386-2.517-3.171-3.564-.786-1.067-1.34-2.044-1.662-2.93a8.37 8.37 0 0 1-.453-2.719c0-1.893.634-3.474 1.903-4.743C6.09 3.837 7.67 3.202 9.563 3.202c1.047 0 2.044.222 2.99.665A7.164 7.164 0 0 1 15 5.74a7.165 7.165 0 0 1 2.447-1.873 6.97 6.97 0 0 1 2.99-.665c1.894 0 3.475.635 4.743 1.903 1.27 1.269 1.904 2.85 1.904 4.743 0 .926-.162 1.833-.484 2.719-.302.886-.846 1.863-1.63 2.93-.786 1.047-1.844 2.235-3.173 3.564-1.329 1.33-3.01 2.91-5.045 4.743L15 25.375Zm0-3.262c1.934-1.732 3.525-3.213 4.773-4.441 1.249-1.249 2.236-2.326 2.96-3.232.726-.927 1.23-1.742 1.511-2.447a5.89 5.89 0 0 0 .423-2.145c0-1.208-.403-2.215-1.208-3.02-.806-.806-1.813-1.21-3.021-1.21-.947 0-1.823.273-2.628.816-.806.524-1.36 1.199-1.662 2.024h-2.296c-.302-.825-.856-1.5-1.661-2.024a4.604 4.604 0 0 0-2.628-.815c-1.209 0-2.215.403-3.021 1.208-.806.806-1.208 1.813-1.208 3.021 0 .705.14 1.42.423 2.145.282.705.785 1.52 1.51 2.447.725.906 1.712 1.983 2.96 3.232 1.249 1.228 2.84 2.709 4.773 4.44Z" fill="#1D1B20"/></svg>