<svg width="283" height="48" fill="none" xmlns="http://www.w3.org/2000/svg"><path d="M270 41h2v-4h4v-2h-4v-4h-2v4h-4v2h4v4Zm1 5a9.875 9.875 0 0 1-3.9-.775 10.27 10.27 0 0 1-3.175-2.15c-.9-.9-1.617-1.958-2.15-3.175A9.868 9.868 0 0 1 261 36c0-1.383.258-2.683.775-3.9a10.269 10.269 0 0 1 2.15-3.175c.9-.9 1.958-1.608 3.175-2.125a9.61 9.61 0 0 1 3.9-.8 9.61 9.61 0 0 1 3.9.8 9.924 9.924 0 0 1 3.175 2.125c.9.9 1.608 1.958 2.125 3.175.533 1.217.8 2.517.8 3.9a9.612 9.612 0 0 1-.8 3.9 9.932 9.932 0 0 1-2.125 3.175c-.9.9-1.958 1.617-3.175 2.15A9.875 9.875 0 0 1 271 46Zm0-2c2.233 0 4.125-.775 5.675-2.325C278.225 40.125 279 38.233 279 36c0-2.233-.775-4.125-2.325-5.675C275.125 28.775 273.233 28 271 28c-2.233 0-4.125.775-5.675 2.325C263.775 31.875 263 33.767 263 36c0 2.233.775 4.125 2.325 5.675C266.875 43.225 268.767 44 271 44ZM271 21l-1.45-1.3c-1.683-1.516-3.075-2.825-4.175-3.925-1.1-1.1-1.975-2.083-2.625-2.95-.65-.883-1.108-1.691-1.375-2.425A6.928 6.928 0 0 1 261 8.15c0-1.566.525-2.875 1.575-3.925 1.05-1.05 2.358-1.575 3.925-1.575.867 0 1.692.184 2.475.55A5.936 5.936 0 0 1 271 4.75a5.936 5.936 0 0 1 2.025-1.55 5.767 5.767 0 0 1 2.475-.55c1.567 0 2.875.525 3.925 1.575C280.475 5.275 281 6.584 281 8.15c0 .767-.133 1.517-.4 2.25-.25.734-.7 1.542-1.35 2.425-.65.867-1.525 1.85-2.625 2.95s-2.492 2.409-4.175 3.925L271 21Zm0-2.7c1.6-1.433 2.917-2.658 3.95-3.675 1.033-1.033 1.85-1.925 2.45-2.675.6-.766 1.017-1.441 1.25-2.025.233-.6.35-1.191.35-1.775 0-1-.333-1.833-1-2.5-.667-.666-1.5-1-2.5-1-.783 0-1.508.225-2.175.675-.667.434-1.125.992-1.375 1.675h-1.9c-.25-.683-.708-1.241-1.375-1.675a3.811 3.811 0 0 0-2.175-.675c-1 0-1.833.334-2.5 1-.667.667-1 1.5-1 2.5 0 .584.117 1.175.35 1.775.233.584.65 1.259 1.25 2.025.6.75 1.417 1.642 2.45 2.675A118.362 118.362 0 0 0 271 18.3ZM11 41h2v-4h4v-2h-4v-4h-2v4H7v2h4v4Zm1 5a9.873 9.873 0 0 1-3.9-.775 10.274 10.274 0 0 1-3.175-2.15c-.9-.9-1.617-1.958-2.15-3.175A9.873 9.873 0 0 1 2 36c0-1.383.258-2.683.775-3.9a10.274 10.274 0 0 1 2.15-3.175c.9-.9 1.958-1.608 3.175-2.125A9.607 9.607 0 0 1 12 26c1.383 0 2.683.267 3.9.8a9.927 9.927 0 0 1 3.175 2.125c.9.9 1.608 1.958 2.125 3.175.533 1.217.8 2.517.8 3.9a9.607 9.607 0 0 1-.8 3.9 9.927 9.927 0 0 1-2.125 3.175c-.9.9-1.958 1.617-3.175 2.15A9.873 9.873 0 0 1 12 46Zm0-2c2.233 0 4.125-.775 5.675-2.325C19.225 40.125 20 38.233 20 36c0-2.233-.775-4.125-2.325-5.675C16.125 28.775 14.233 28 12 28c-2.233 0-4.125.775-5.675 2.325C4.775 31.875 4 33.767 4 36c0 2.233.775 4.125 2.325 5.675C7.875 43.225 9.767 44 12 44ZM12 21l-1.45-1.3c-1.683-1.516-3.075-2.825-4.175-3.925-1.1-1.1-1.975-2.083-2.625-2.95-.65-.883-1.108-1.691-1.375-2.425A6.928 6.928 0 0 1 2 8.15c0-1.566.525-2.875 1.575-3.925C4.625 3.175 5.933 2.65 7.5 2.65c.867 0 1.692.184 2.475.55A5.93 5.93 0 0 1 12 4.75a5.93 5.93 0 0 1 2.025-1.55 5.769 5.769 0 0 1 2.475-.55c1.567 0 2.875.525 3.925 1.575C21.475 5.275 22 6.584 22 8.15c0 .767-.133 1.517-.4 2.25-.25.734-.7 1.542-1.35 2.425-.65.867-1.525 1.85-2.625 2.95s-2.492 2.409-4.175 3.925L12 21Zm0-2.7a118.66 118.66 0 0 0 3.95-3.675c1.033-1.033 1.85-1.925 2.45-2.675.6-.766 1.017-1.441 1.25-2.025.233-.6.35-1.191.35-1.775 0-1-.333-1.833-1-2.5-.667-.666-1.5-1-2.5-1a3.81 3.81 0 0 0-2.175.675C13.658 5.76 13.2 6.317 12.95 7h-1.9c-.25-.683-.708-1.241-1.375-1.675A3.81 3.81 0 0 0 7.5 4.65c-1 0-1.833.334-2.5 1-.667.667-1 1.5-1 2.5 0 .584.117 1.175.35 1.775.233.584.65 1.259 1.25 2.025.6.75 1.417 1.642 2.45 2.675A118.69 118.69 0 0 0 12 18.3Z" fill="#1D1B20"/></svg>