<svg width="1482" height="52" fill="none" xmlns="http://www.w3.org/2000/svg"><path d="M18 47.39V27.213h12V47.39M6 21.16 24 7.035 42 21.16v22.195c0 1.07-.421 2.097-1.172 2.853A3.982 3.982 0 0 1 38 47.39H10a3.982 3.982 0 0 1-2.828-1.182A4.054 4.054 0 0 1 6 43.355V21.16ZM1401 43.373l-8.7-8.777m4.7-11.4c0 8.915-7.16 16.142-16 16.142s-16-7.227-16-16.142 7.16-16.142 16-16.142 16 7.227 16 16.142ZM1474.17 43.373v-4.035c0-2.14-.83-4.194-2.3-5.707a7.718 7.718 0 0 0-5.54-2.364h-15.66c-2.08 0-4.07.85-5.54 2.364a8.198 8.198 0 0 0-2.3 5.707v4.035m23.5-28.248c0 4.457-3.5 8.07-7.83 8.07s-7.83-3.613-7.83-8.07c0-4.458 3.5-8.071 7.83-8.071s7.83 3.613 7.83 8.07Z" stroke="#757575" stroke-width="4" stroke-linecap="round" stroke-linejoin="round"/><path opacity=".5" d="M1278 3h8l5.36 26.78c.18.92.68 1.748 1.42 2.337.73.588 1.64.901 2.58.883h19.44c.94.018 1.85-.295 2.58-.883a3.95 3.95 0 0 0 1.42-2.337L1322 13h-34m8 30c0 1.105-.9 2-2 2s-2-.895-2-2 .9-2 2-2 2 .895 2 2Zm22 0c0 1.105-.9 2-2 2s-2-.895-2-2 .9-2 2-2 2 .895 2 2Z" stroke="#1E1E1E" stroke-width="4" stroke-linecap="round" stroke-linejoin="round"/><path d="M1232.68 9.22a10.933 10.933 0 0 0-3.57-2.386 10.997 10.997 0 0 0-11.99 2.386l-2.12 2.12-2.12-2.12a10.993 10.993 0 0 0-7.78-3.223c-2.92 0-5.72 1.16-7.78 3.223a11.014 11.014 0 0 0-3.22 7.78c0 2.918 1.16 5.716 3.22 7.78L1215 42.46l17.68-17.68a11.154 11.154 0 0 0 2.39-3.57c.55-1.335.83-2.765.83-4.21 0-1.445-.28-2.876-.83-4.211a11.155 11.155 0 0 0-2.39-3.57Z" stroke="#1E1E1E" stroke-width="4" stroke-linecap="round" stroke-linejoin="round"/></svg>