<svg width="1249" height="48" fill="none" xmlns="http://www.w3.org/2000/svg"><path d="M17.625 44V24h11.75v20m-23.5-26L23.5 4l17.625 14v22c0 1.06-.413 2.078-1.147 2.828A3.875 3.875 0 0 1 37.208 44H9.792a3.876 3.876 0 0 1-2.77-1.172A4.043 4.043 0 0 1 5.875 40V18ZM1173.23 42l-8.52-8.7m4.6-11.3c0 8.837-7.01 16-15.67 16-8.65 0-15.66-7.163-15.66-16s7.01-16 15.66-16c8.66 0 15.67 7.163 15.67 16ZM1240.7 42v-4a8.08 8.08 0 0 0-2.29-5.657 7.752 7.752 0 0 0-5.54-2.343h-15.67c-2.08 0-4.07.843-5.54 2.343a8.08 8.08 0 0 0-2.29 5.657v4m23.5-28c0 4.418-3.51 8-7.84 8-4.32 0-7.83-3.582-7.83-8s3.51-8 7.83-8c4.33 0 7.84 3.582 7.84 8Z" stroke="#757575" stroke-width="4" stroke-linecap="round" stroke-linejoin="round"/><g clip-path="url('#clip0_137_1618')"><path opacity=".5" d="M1056.96 2h7.83l5.25 26.78c.18.92.67 1.748 1.39 2.337.71.588 1.61.901 2.53.883h19.03c.92.018 1.82-.295 2.53-.883a4.006 4.006 0 0 0 1.39-2.337l3.13-16.78h-33.29m7.83 30c0 1.105-.87 2-1.96 2-1.08 0-1.95-.895-1.95-2s.87-2 1.95-2c1.09 0 1.96.895 1.96 2Zm21.54 0c0 1.105-.87 2-1.95 2-1.09 0-1.96-.895-1.96-2s.87-2 1.96-2c1.08 0 1.95.895 1.95 2Z" stroke="#1E1E1E" stroke-width="4" stroke-linecap="round" stroke-linejoin="round"/></g><path d="M1015.68 9.22a10.933 10.933 0 0 0-3.57-2.386 10.997 10.997 0 0 0-11.99 2.386L998 11.34l-2.12-2.12a11.002 11.002 0 1 0-15.56 15.56L998 42.46l17.68-17.68a11.154 11.154 0 0 0 2.39-3.57c.55-1.335.83-2.765.83-4.21 0-1.445-.28-2.876-.83-4.211a11.155 11.155 0 0 0-2.39-3.57Z" stroke="#1E1E1E" stroke-width="4" stroke-linecap="round" stroke-linejoin="round"/><defs><clipPath id="clip0_137_1618"><path fill="#fff" transform="translate(1055)" d="M0 0h47v48H0z"/></clipPath></defs></svg>