<svg width="41" height="36" fill="none" xmlns="http://www.w3.org/2000/svg"><path fill="#fff" d="M.23.438h40v35.337h-40z"/><path d="M29.396 10.01h.017M11.896 3.383h16.666c4.603 0 8.334 3.296 8.334 7.362V25.47c0 4.066-3.731 7.362-8.334 7.362H11.896c-4.603 0-8.334-3.297-8.334-7.362V10.746c0-4.066 3.731-7.362 8.334-7.362Zm15 13.796a5.296 5.296 0 0 1-.677 3.576c-.646 1.1-1.668 1.992-2.92 2.549a7.45 7.45 0 0 1-4.057.554c-1.384-.197-2.663-.775-3.655-1.65-.991-.876-1.645-2.006-1.868-3.23a5.287 5.287 0 0 1 .627-3.583c.63-1.106 1.64-2.01 2.885-2.58a7.44 7.44 0 0 1 4.048-.598c1.415.185 2.725.768 3.736 1.661 1.012.894 1.671 2.051 1.88 3.301Z" stroke="#1E1E1E" stroke-width="3.301" stroke-linecap="round" stroke-linejoin="round"/></svg>