<svg width="44" height="40" fill="none" xmlns="http://www.w3.org/2000/svg"><path fill="#fff" d="M.565.062h42.982v39.544H.565z"/><path d="M31.907 10.772h.018M13.102 3.357h17.91c4.945 0 8.954 3.689 8.954 8.239v16.477c0 4.55-4.01 8.238-8.955 8.238H13.102c-4.945 0-8.955-3.689-8.955-8.238V11.596c0-4.55 4.01-8.239 8.955-8.239Zm16.118 15.44a6.134 6.134 0 0 1-.727 4.001c-.694 1.23-1.792 2.229-3.138 2.852a7.717 7.717 0 0 1-4.359.62c-1.488-.22-2.862-.867-3.927-1.847-1.066-.98-1.768-2.244-2.007-3.613a6.127 6.127 0 0 1 .673-4.01c.678-1.239 1.762-2.249 3.1-2.887a7.71 7.71 0 0 1 4.35-.67c1.52.208 2.928.86 4.015 1.86 1.087 1 1.795 2.294 2.02 3.693Z" stroke="#1E1E1E" stroke-width="3.301" stroke-linecap="round" stroke-linejoin="round"/></svg>