<svg width="52" height="41" fill="none" xmlns="http://www.w3.org/2000/svg"><path fill="#fff" d="M.717.17h50.306v40.572H.717z"/><path d="M37.398 11.158h.021M15.39 3.551H36.35c5.788 0 10.48 3.784 10.48 8.452v16.905c0 4.669-4.692 8.453-10.48 8.453H15.39c-5.789 0-10.48-3.784-10.48-8.452V12.003c0-4.668 4.691-8.452 10.48-8.452Zm18.865 15.84c.259 1.407-.04 2.844-.851 4.106-.813 1.263-2.098 2.287-3.673 2.926-1.575.64-3.36.862-5.102.636-1.74-.226-3.35-.889-4.596-1.895-1.247-1.005-2.07-2.303-2.35-3.707-.28-1.404-.003-2.844.79-4.114.792-1.27 2.062-2.307 3.627-2.962 1.565-.655 3.347-.896 5.091-.687 1.78.213 3.427.881 4.7 1.907 1.271 1.026 2.1 2.355 2.364 3.79Z" stroke="#1E1E1E" stroke-width="3.301" stroke-linecap="round" stroke-linejoin="round"/></svg>