<svg width="37" height="33" fill="none" xmlns="http://www.w3.org/2000/svg"><path fill="#fff" d="M.803.115h36.139v32.252H.802z"/><path d="M27.154 8.85h.015M11.343 2.803h15.058c4.158 0 7.53 3.008 7.53 6.719V22.96c0 3.711-3.372 6.72-7.53 6.72H11.343c-4.158 0-7.529-3.009-7.529-6.72V9.522c0-3.711 3.371-6.72 7.53-6.72Zm13.552 12.592a4.876 4.876 0 0 1-.611 3.264c-.584 1.003-1.507 1.817-2.639 2.326a6.668 6.668 0 0 1-3.664.505c-1.251-.18-2.407-.706-3.303-1.506-.895-.8-1.486-1.83-1.687-2.947a4.869 4.869 0 0 1 .566-3.27c.57-1.01 1.482-1.835 2.606-2.355a6.662 6.662 0 0 1 3.658-.546c1.278.169 2.462.7 3.375 1.516.914.816 1.51 1.872 1.7 3.013Z" stroke="#1E1E1E" stroke-width="3.301" stroke-linecap="round" stroke-linejoin="round"/></svg>