<svg width="41" height="33" fill="none" xmlns="http://www.w3.org/2000/svg"><path fill="#fff" d="M.23.308h40v32.346h-40z"/><path d="M29.396 9.068h.017M11.896 3.003h16.666c4.603 0 8.334 3.017 8.334 6.739v13.477c0 3.722-3.731 6.739-8.334 6.739H11.896c-4.603 0-8.334-3.017-8.334-6.739V9.742c0-3.722 3.731-6.74 8.334-6.74Zm15 12.628c.206 1.122-.031 2.267-.677 3.274-.646 1.006-1.668 1.823-2.92 2.332a8.078 8.078 0 0 1-4.057.508c-1.384-.18-2.663-.71-3.655-1.51-.991-.803-1.645-1.837-1.868-2.956-.223-1.12-.003-2.268.627-3.28.63-1.014 1.64-1.84 2.885-2.362a8.063 8.063 0 0 1 4.048-.548c1.415.17 2.725.703 3.736 1.521 1.012.818 1.671 1.877 1.88 3.021Z" stroke="#1E1E1E" stroke-width="3.301" stroke-linecap="round" stroke-linejoin="round"/></svg>