<svg width="51" height="41" fill="none" xmlns="http://www.w3.org/2000/svg"><path fill="#fff" d="M.411.17h50.306v40.572H.411z"/><path d="M33.948 13.694c3.336 0 6.535 1.068 8.893 2.97 2.359 1.903 3.684 4.483 3.684 7.173v11.834H38.14V23.837c0-.897-.442-1.757-1.228-2.39-.786-.635-1.853-.991-2.965-.991-1.111 0-2.178.356-2.964.99s-1.228 1.494-1.228 2.391v11.834h-8.384V23.837c0-2.69 1.325-5.27 3.684-7.172 2.358-1.902 5.557-2.971 8.892-2.971ZM12.988 15.384H4.604v20.287h8.384V15.384ZM8.796 10.313c2.315 0 4.192-1.514 4.192-3.381 0-1.867-1.877-3.381-4.192-3.381-2.316 0-4.192 1.514-4.192 3.38 0 1.868 1.876 3.382 4.192 3.382Z" stroke="#1E1E1E" stroke-width="3.301" stroke-linecap="round" stroke-linejoin="round"/></svg>