<svg width="41" height="36" fill="none" xmlns="http://www.w3.org/2000/svg"><path fill="#fff" d="M.23.438h40v35.337h-40z"/><path d="M26.897 12.218c2.652 0 5.196.93 7.07 2.588 1.876 1.656 2.93 3.903 2.93 6.246V31.36H30.23V21.052c0-.78-.351-1.53-.976-2.082-.625-.552-1.473-.862-2.357-.862-.884 0-1.732.31-2.357.862-.625.552-.976 1.302-.976 2.082V31.36h-6.667V21.052c0-2.343 1.053-4.59 2.929-6.246 1.875-1.657 4.419-2.588 7.07-2.588ZM10.23 13.69H3.563v17.67h6.667V13.69ZM6.897 9.273c1.84 0 3.333-1.318 3.333-2.944 0-1.627-1.492-2.945-3.333-2.945-1.841 0-3.334 1.318-3.334 2.945 0 1.626 1.493 2.944 3.334 2.944Z" stroke="#1E1E1E" stroke-width="3.301" stroke-linecap="round" stroke-linejoin="round"/></svg>