<svg width="37" height="33" fill="none" xmlns="http://www.w3.org/2000/svg"><path fill="#fff" d="M.56.115h36.139v32.252H.559z"/><path d="M24.652 10.866c2.396 0 4.694.85 6.389 2.361 1.694 1.513 2.646 3.563 2.646 5.702v9.407h-6.023v-9.407c0-.713-.317-1.396-.882-1.9a3.205 3.205 0 0 0-2.13-.788c-.798 0-1.564.283-2.13.787-.564.505-.881 1.188-.881 1.9v9.408h-6.023v-9.407c0-2.139.952-4.19 2.646-5.702 1.694-1.512 3.992-2.361 6.388-2.361ZM9.594 12.21H3.571v16.126h6.023V12.21ZM6.583 8.178c1.663 0 3.011-1.203 3.011-2.688 0-1.484-1.348-2.687-3.011-2.687S3.57 4.006 3.57 5.49c0 1.485 1.349 2.688 3.012 2.688Z" stroke="#1E1E1E" stroke-width="3.301" stroke-linecap="round" stroke-linejoin="round"/></svg>