<svg width="44" height="40" fill="none" xmlns="http://www.w3.org/2000/svg"><path fill="#fff" d="M.656.062h42.982v39.544H.656z"/><path d="M29.311 13.243c2.85 0 5.583 1.042 7.599 2.896 2.015 1.854 3.147 4.369 3.147 6.99v11.534h-7.164V23.13c0-.874-.377-1.713-1.049-2.33a3.746 3.746 0 0 0-2.533-.966c-.95 0-1.86.347-2.532.965-.672.618-1.05 1.457-1.05 2.33v11.534h-7.163V23.13c0-2.622 1.132-5.137 3.147-6.991 2.015-1.854 4.748-2.896 7.598-2.896ZM11.402 14.891H4.238v19.772h7.164V14.891ZM7.82 9.948c1.978 0 3.582-1.475 3.582-3.295 0-1.82-1.604-3.296-3.582-3.296-1.978 0-3.582 1.476-3.582 3.296 0 1.82 1.604 3.295 3.582 3.295Z" stroke="#1E1E1E" stroke-width="3.301" stroke-linecap="round" stroke-linejoin="round"/></svg>