<svg width="41" height="33" fill="none" xmlns="http://www.w3.org/2000/svg"><path fill="#fff" d="M.23.308h40v32.346h-40z"/><path d="M26.897 11.09c2.652 0 5.196.851 7.07 2.368 1.876 1.516 2.93 3.573 2.93 5.718v9.434H30.23v-9.434c0-.715-.351-1.4-.976-1.906s-1.473-.79-2.357-.79c-.884 0-1.732.284-2.357.79-.625.505-.976 1.191-.976 1.906v9.434h-6.667v-9.434c0-2.145 1.053-4.202 2.929-5.718 1.875-1.517 4.419-2.369 7.07-2.369ZM10.23 12.437H3.563V28.61h6.667V12.437ZM6.897 8.394c1.84 0 3.333-1.207 3.333-2.696 0-1.488-1.492-2.695-3.333-2.695-1.841 0-3.334 1.207-3.334 2.695 0 1.49 1.493 2.696 3.334 2.696Z" stroke="#1E1E1E" stroke-width="3.301" stroke-linecap="round" stroke-linejoin="round"/></svg>