<svg width="40" height="40" fill="none" xmlns="http://www.w3.org/2000/svg"><path d="M30 36.666c-1.389 0-2.57-.486-3.542-1.458S25 33.055 25 31.666c0-.194.014-.396.042-.604a3.05 3.05 0 0 1 .125-.562l-11.75-6.834c-.473.417-1 .743-1.584.98A4.84 4.84 0 0 1 10 25c-1.389 0-2.57-.486-3.542-1.459C5.486 22.57 5 21.39 5 20c0-1.39.486-2.57 1.458-3.542C7.431 15.486 8.611 15 10 15c.639 0 1.25.118 1.833.354a5.49 5.49 0 0 1 1.584.979L25.167 9.5a3.051 3.051 0 0 1-.125-.563A4.569 4.569 0 0 1 25 8.333c0-1.389.486-2.57 1.458-3.542.973-.972 2.153-1.458 3.542-1.458 1.389 0 2.57.486 3.542 1.458C34.514 5.764 35 6.944 35 8.333c0 1.389-.486 2.57-1.458 3.542-.973.972-2.153 1.458-3.542 1.458-.639 0-1.25-.118-1.833-.354a5.49 5.49 0 0 1-1.584-.98l-11.75 6.834c.056.167.098.354.125.563.028.208.042.41.042.604s-.014.395-.042.604a3.05 3.05 0 0 1-.125.562L26.583 28c.473-.417 1-.743 1.584-.98A4.84 4.84 0 0 1 30 26.666c1.389 0 2.57.486 3.542 1.459.972.972 1.458 2.152 1.458 3.541 0 1.39-.486 2.57-1.458 3.542-.973.972-2.153 1.458-3.542 1.458ZM30 10c.472 0 .868-.16 1.188-.48.319-.319.479-.715.479-1.187 0-.472-.16-.868-.48-1.187-.319-.32-.715-.48-1.187-.48-.472 0-.868.16-1.188.48-.319.319-.479.715-.479 1.187 0 .472.16.868.48 1.188.319.319.715.479 1.187.479ZM10 21.666c.472 0 .868-.16 1.188-.479.319-.32.479-.715.479-1.187 0-.473-.16-.868-.48-1.188-.319-.32-.715-.479-1.187-.479-.472 0-.868.16-1.188.48-.319.319-.479.715-.479 1.187 0 .472.16.868.48 1.187.319.32.715.48 1.187.48Zm20 11.667c.472 0 .868-.16 1.188-.48.319-.319.479-.714.479-1.187 0-.472-.16-.868-.48-1.187-.319-.32-.715-.48-1.187-.48-.472 0-.868.16-1.188.48-.319.32-.479.715-.479 1.187 0 .473.16.868.48 1.188.319.32.715.479 1.187.479Z" fill="#1D1B20"/></svg>