<svg width="24" height="25" fill="none" xmlns="http://www.w3.org/2000/svg"><path d="m12 21.211-1.45-1.313c-1.683-1.532-3.075-2.853-4.175-3.964-1.1-1.111-1.975-2.105-2.625-2.98-.65-.892-1.108-1.709-1.375-2.45A7.06 7.06 0 0 1 2 8.233c0-1.582.525-2.904 1.575-3.964C4.625 3.207 5.933 2.677 7.5 2.677c.867 0 1.692.185 2.475.555.783.37 1.458.892 2.025 1.566a5.937 5.937 0 0 1 2.025-1.566 5.72 5.72 0 0 1 2.475-.555c1.567 0 2.875.53 3.925 1.59C21.475 5.329 22 6.65 22 8.233a6.66 6.66 0 0 1-.4 2.273c-.25.74-.7 1.557-1.35 2.449-.65.875-1.525 1.869-2.625 2.98-1.1 1.11-2.492 2.432-4.175 3.964L12 21.211Zm0-2.727c1.6-1.448 2.917-2.685 3.95-3.712 1.033-1.044 1.85-1.944 2.45-2.702.6-.774 1.017-1.456 1.25-2.045.233-.606.35-1.204.35-1.793 0-1.01-.333-1.852-1-2.525-.667-.673-1.5-1.01-2.5-1.01-.783 0-1.508.227-2.175.682-.667.437-1.125 1.001-1.375 1.691h-1.9c-.25-.69-.708-1.254-1.375-1.691A3.783 3.783 0 0 0 7.5 4.697c-1 0-1.833.337-2.5 1.01S4 7.222 4 8.232c0 .59.117 1.187.35 1.793.233.589.65 1.27 1.25 2.045.6.758 1.417 1.658 2.45 2.702A119.282 119.282 0 0 0 12 18.484Z" fill="#1D1B20"/></svg>