<svg width="41" height="33" fill="none" xmlns="http://www.w3.org/2000/svg"><g clip-path="url('#clip0_165_1308')"><path fill="#fff" d="M.23.308h40v32.346h-40z"/><path d="M38.563 4.351a20.23 20.23 0 0 1-5.233 2.062c-1.004-.933-2.338-1.594-3.822-1.895a9.143 9.143 0 0 0-4.475.217c-1.429.44-2.656 1.226-3.515 2.25-.859 1.023-1.309 2.235-1.288 3.472v1.348c-2.93.06-5.831-.464-8.449-1.53C9.165 9.21 6.914 7.638 5.23 5.7c0 0-6.667 12.13 8.333 17.52-3.432 1.885-7.521 2.83-11.667 2.696 15 6.74 33.334 0 33.334-15.499a4.947 4.947 0 0 0-.133-1.118c1.7-1.357 2.9-3.07 3.466-4.947Z" stroke="#1E1E1E" stroke-width="3.301" stroke-linecap="round" stroke-linejoin="round"/></g><defs><clipPath id="clip0_165_1308"><path fill="#fff" transform="translate(.23 .308)" d="M0 0h40v32.346H0z"/></clipPath></defs></svg>