<svg width="51" height="41" fill="none" xmlns="http://www.w3.org/2000/svg"><g clip-path="url('#clip0_144_1329')"><path fill="#fff" d="M.179.17h50.306v40.572H.179z"/><path d="M48.389 5.242a25.481 25.481 0 0 1-6.582 2.586c-1.262-1.17-2.94-2-4.806-2.377a11.528 11.528 0 0 0-5.628.271c-1.797.554-3.34 1.539-4.42 2.822-1.081 1.284-1.647 2.804-1.62 4.356v1.69c-3.684.077-7.334-.582-10.626-1.918-3.291-1.336-6.122-3.308-8.24-5.74 0 0-8.384 15.215 10.48 21.977-4.316 2.363-9.458 3.548-14.672 3.38 18.865 8.453 41.922 0 41.922-19.44a6.187 6.187 0 0 0-.168-1.403c2.14-1.702 3.649-3.85 4.36-6.204Z" stroke="#1E1E1E" stroke-width="3.301" stroke-linecap="round" stroke-linejoin="round"/></g><defs><clipPath id="clip0_144_1329"><path fill="#fff" transform="translate(.179 .17)" d="M0 0h50.306v40.572H0z"/></clipPath></defs></svg>