<svg width="37" height="33" fill="none" xmlns="http://www.w3.org/2000/svg"><g clip-path="url('#clip0_144_1424')"><path fill="#fff" d="M.64.115h36.139v32.252H.639z"/><path d="M35.273 4.146a17.307 17.307 0 0 1-4.728 2.056c-.907-.93-2.113-1.59-3.453-1.89a7.515 7.515 0 0 0-4.043.217c-1.291.44-2.4 1.222-3.176 2.243-.776 1.02-1.182 2.229-1.164 3.462v1.344a17.674 17.674 0 0 1-7.633-1.525C8.712 8.991 6.678 7.423 5.157 5.49c0 0-6.023 12.095 7.529 17.47-3.101 1.879-6.795 2.82-10.54 2.688 13.552 6.72 30.115 0 30.115-15.454a5.416 5.416 0 0 0-.12-1.116c1.537-1.352 2.621-3.06 3.132-4.932Z" stroke="#1E1E1E" stroke-width="3.301" stroke-linecap="round" stroke-linejoin="round"/></g><defs><clipPath id="clip0_144_1424"><path fill="#fff" transform="translate(.64 .115)" d="M0 0h36.139v32.252H0z"/></clipPath></defs></svg>