<svg width="41" height="36" fill="none" xmlns="http://www.w3.org/2000/svg"><g clip-path="url('#clip0_144_1386')"><path fill="#fff" d="M.23.438h40v35.337h-40z"/><path d="M38.563 4.856a19.258 19.258 0 0 1-5.233 2.252c-1.004-1.02-2.338-1.742-3.822-2.07a8.4 8.4 0 0 0-4.475.236c-1.429.482-2.656 1.34-3.515 2.458s-1.309 2.442-1.288 3.793v1.473a19.733 19.733 0 0 1-8.449-1.67c-2.617-1.164-4.867-2.882-6.551-5 0 0-6.667 13.252 8.333 19.141-3.432 2.058-7.521 3.09-11.667 2.945 15 7.362 33.334 0 33.334-16.933a5.88 5.88 0 0 0-.133-1.222c1.7-1.482 2.9-3.353 3.466-5.403Z" stroke="#1E1E1E" stroke-width="3.301" stroke-linecap="round" stroke-linejoin="round"/></g><defs><clipPath id="clip0_144_1386"><path fill="#fff" transform="translate(.23 .438)" d="M0 0h40v35.337H0z"/></clipPath></defs></svg>