<svg width="44" height="40" fill="none" xmlns="http://www.w3.org/2000/svg"><g clip-path="url('#clip0_169_1418')"><path fill="#fff" d="M.959.062h42.982v39.544H.959z"/><path d="M42.15 5.004a20.273 20.273 0 0 1-5.623 2.52c-1.079-1.14-2.512-1.949-4.107-2.316a8.683 8.683 0 0 0-4.808.265c-1.536.539-2.854 1.499-3.777 2.75a6.967 6.967 0 0 0-1.385 4.245v1.648a20.479 20.479 0 0 1-9.078-1.87c-2.812-1.302-5.23-3.224-7.04-5.594 0 0-7.164 14.829 8.955 21.42-3.689 2.303-8.083 3.458-12.537 3.295 16.118 8.238 35.819 0 35.819-18.949a6.842 6.842 0 0 0-.144-1.367c1.828-1.659 3.118-3.752 3.725-6.047Z" stroke="#1E1E1E" stroke-width="3.301" stroke-linecap="round" stroke-linejoin="round"/></g><defs><clipPath id="clip0_169_1418"><path fill="#fff" transform="translate(.959 .062)" d="M0 0h42.982v39.544H0z"/></clipPath></defs></svg>